# Blender v2.79 (sub 0) OBJ File: ''
# www.blender.org
mtllib power3_disp_tris.mtl
o Plane_Plane.001
v -4.000000 4.000000 1.000001
v -8.000000 8.000000 0.000001
v -8.000000 4.000000 0.000001
v -4.000000 8.000000 0.000001
v -8.000000 2.000000 0.000000
v -4.000000 6.000000 0.500001
v -2.000000 4.000000 0.500001
v -6.000000 4.000000 0.500001
v -8.000000 6.000000 0.000001
v -2.000000 8.000000 0.000001
v -6.000000 8.000000 0.000001
v -4.000000 2.000000 0.500000
v -6.000000 6.000000 0.250001
v -2.000000 6.000000 0.250001
v -2.000000 2.000000 0.250000
v -6.000000 2.000000 0.250000
v 0.000000 8.000000 0.000001
v 4.000000 4.000000 1.000001
v 0.000000 4.000000 0.000001
v 8.000000 8.000000 0.000001
v 8.000000 4.000000 0.000001
v 4.000000 8.000000 0.000001
v 0.000000 2.000000 0.000000
v 8.000000 2.000000 0.000000
v 4.000000 6.000000 0.500001
v 2.000000 4.000000 0.500001
v 6.000000 4.000000 0.500001
v 0.000000 6.000000 0.000001
v 8.000000 6.000000 0.000001
v 2.000000 8.000000 0.000001
v 6.000000 8.000000 0.000001
v 4.000000 2.000000 0.500000
v 6.000000 6.000000 0.250001
v 2.000000 6.000000 0.250001
v 2.000000 2.000000 0.250000
v 6.000000 2.000000 0.250000
v -4.000000 -4.000000 1.000001
v -8.000000 0.000000 0.000000
v -8.000000 -8.000000 0.000001
v -8.000000 -4.000000 0.000001
v -4.000000 0.000000 0.000000
v -4.000000 -8.000000 0.000001
v -8.000000 -2.000000 0.000000
v -4.000000 -6.000000 0.500001
v -2.000000 0.000000 0.000000
v -2.000000 -4.000000 0.500001
v -6.000000 0.000000 0.000000
v -6.000000 -4.000000 0.500001
v -8.000000 -6.000000 0.000001
v -2.000000 -8.000000 0.000001
v -6.000000 -8.000000 0.000001
v -4.000000 -2.000000 0.500000
v -6.000000 -6.000000 0.250001
v -2.000000 -6.000000 0.250001
v -2.000000 -2.000000 0.250000
v -6.000000 -2.000000 0.250000
v 0.000000 -8.000000 0.000001
v 4.000000 -4.000000 1.000001
v 0.000000 -4.000000 0.000001
v 0.000000 0.000000 0.000000
v 8.000000 0.000000 0.000000
v 8.000000 -8.000000 0.000001
v 8.000000 -4.000000 0.000001
v 4.000000 0.000000 0.000000
v 4.000000 -8.000000 0.000001
v 0.000000 -2.000000 0.000000
v 8.000000 -2.000000 0.000000
v 4.000000 -6.000000 0.500001
v 2.000000 0.000000 0.000000
v 2.000000 -4.000000 0.500001
v 6.000000 0.000000 0.000000
v 6.000000 -4.000000 0.500001
v 0.000000 -6.000000 0.000001
v 8.000000 -6.000000 0.000001
v 2.000000 -8.000000 0.000001
v 6.000000 -8.000000 0.000001
v 4.000000 -2.000000 0.500000
v 6.000000 -6.000000 0.250001
v 2.000000 -6.000000 0.250001
v 2.000000 -2.000000 0.250000
v 6.000000 -2.000000 0.250000
vn -0.2408 0.1204 0.9631
vn -0.1204 0.2408 0.9631
vn 0.1240 -0.0000 0.9923
vn 0.0000 0.1240 0.9923
vn 0.0000 -0.1240 0.9923
vn -0.1204 -0.2408 0.9631
vn -0.2408 -0.1204 0.9631
vn -0.1240 -0.0000 0.9923
vn 0.2408 0.1204 0.9631
vn 0.1204 0.2408 0.9631
vn 0.1204 -0.2408 0.9631
vn 0.2408 -0.1204 0.9631
usemtl None
s off
f 13//1 3//1 8//1
f 4//2 13//2 6//2
f 14//3 19//3 28//3
f 4//4 14//4 10//4
f 15//5 41//5 45//5
f 19//3 15//3 23//3
f 16//6 41//6 12//6
f 3//7 16//7 8//7
f 4//4 11//4 13//4
f 9//8 13//8 2//8
f 13//8 9//8 3//8
f 14//9 7//9 19//9
f 4//10 6//10 14//10
f 15//11 12//11 41//11
f 19//12 7//12 15//12
f 16//5 47//5 41//5
f 3//8 5//8 16//8
f 11//4 2//4 13//4
f 10//4 14//4 17//4
f 28//3 17//3 14//3
f 7//9 14//9 1//9
f 6//10 1//10 14//10
f 6//2 13//2 1//2
f 8//1 1//1 13//1
f 8//7 16//7 1//7
f 12//6 1//6 16//6
f 12//11 15//11 1//11
f 7//12 1//12 15//12
f 60//3 23//3 15//3
f 45//5 60//5 15//5
f 47//5 16//5 38//5
f 5//8 38//8 16//8
f 33//9 27//9 21//9
f 22//10 25//10 33//10
f 34//8 28//8 19//8
f 22//4 30//4 34//4
f 35//5 69//5 64//5
f 19//8 23//8 35//8
f 36//11 32//11 64//11
f 21//12 27//12 36//12
f 22//4 33//4 31//4
f 29//3 20//3 33//3
f 33//3 21//3 29//3
f 34//1 19//1 26//1
f 22//2 34//2 25//2
f 35//6 64//6 32//6
f 19//7 35//7 26//7
f 36//5 64//5 71//5
f 21//3 36//3 24//3
f 31//4 33//4 20//4
f 30//4 17//4 34//4
f 28//8 34//8 17//8
f 26//1 18//1 34//1
f 25//2 34//2 18//2
f 25//10 18//10 33//10
f 27//9 33//9 18//9
f 27//12 18//12 36//12
f 32//11 36//11 18//11
f 32//6 18//6 35//6
f 26//7 35//7 18//7
f 60//8 35//8 23//8
f 69//5 35//5 60//5
f 71//5 61//5 36//5
f 24//3 36//3 61//3
f 53//7 48//7 40//7
f 42//6 44//6 53//6
f 54//3 73//3 59//3
f 42//5 50//5 54//5
f 55//4 45//4 41//4
f 59//3 66//3 55//3
f 56//2 52//2 41//2
f 40//1 48//1 56//1
f 42//5 53//5 51//5
f 49//8 39//8 53//8
f 53//8 40//8 49//8
f 54//12 59//12 46//12
f 42//11 54//11 44//11
f 55//10 41//10 52//10
f 59//9 55//9 46//9
f 56//4 41//4 47//4
f 40//8 56//8 43//8
f 51//5 53//5 39//5
f 50//5 57//5 54//5
f 73//3 54//3 57//3
f 46//12 37//12 54//12
f 44//11 54//11 37//11
f 44//6 37//6 53//6
f 48//7 53//7 37//7
f 48//1 37//1 56//1
f 52//2 56//2 37//2
f 52//10 37//10 55//10
f 46//9 55//9 37//9
f 60//3 55//3 66//3
f 45//4 55//4 60//4
f 47//4 38//4 56//4
f 43//8 56//8 38//8
f 78//12 63//12 72//12
f 65//11 78//11 68//11
f 79//8 59//8 73//8
f 65//5 79//5 75//5
f 80//4 64//4 69//4
f 59//8 80//8 66//8
f 81//10 64//10 77//10
f 63//9 81//9 72//9
f 65//5 76//5 78//5
f 74//3 78//3 62//3
f 78//3 74//3 63//3
f 79//7 70//7 59//7
f 65//6 68//6 79//6
f 80//2 77//2 64//2
f 59//1 70//1 80//1
f 81//4 71//4 64//4
f 63//3 67//3 81//3
f 76//5 62//5 78//5
f 75//5 79//5 57//5
f 73//8 57//8 79//8
f 70//7 79//7 58//7
f 68//6 58//6 79//6
f 68//11 78//11 58//11
f 72//12 58//12 78//12
f 72//9 81//9 58//9
f 77//10 58//10 81//10
f 77//2 80//2 58//2
f 70//1 58//1 80//1
f 60//8 66//8 80//8
f 69//4 60//4 80//4
f 71//4 81//4 61//4
f 67//3 61//3 81//3
