# Blender v2.79 (sub 0) OBJ File: ''
# www.blender.org
mtllib power2_disp_quads.mtl
o Plane_Plane.001
v -4.000000 4.000000 1.000001
v -8.000000 8.000000 0.000001
v -8.000000 4.000000 0.000001
v -4.000000 8.000000 0.000001
v 4.000000 4.000000 1.000001
v 8.000000 8.000000 0.000001
v 8.000000 4.000000 0.000001
v 4.000000 8.000000 0.000001
v 0.000000 8.000000 0.000001
v 0.000000 4.000000 0.000001
v -4.000000 -4.000000 1.000001
v -8.000000 -8.000000 0.000001
v -8.000000 -4.000000 0.000001
v -4.000000 -8.000000 0.000001
v -8.000000 0.000000 0.000000
v -4.000000 0.000000 0.000000
v 4.000000 -4.000000 1.000001
v 8.000000 -8.000000 0.000001
v 8.000000 -4.000000 0.000001
v 4.000000 -8.000000 0.000001
v 0.000000 -8.000000 0.000001
v 0.000000 -4.000000 0.000001
v 8.000000 0.000000 0.000000
v 4.000000 0.000000 0.000000
v 0.000000 0.000000 0.000000
vn 0.1231 0.1231 0.9847
vn 0.1231 -0.1231 0.9847
vn -0.1231 -0.1231 0.9847
vn -0.1231 0.1231 0.9847
usemtl None
s off
f 7//1 6//1 8//1 5//1
f 25//2 10//2 1//2 16//2
f 1//3 3//3 15//3 16//3
f 10//4 5//4 8//4 9//4
f 5//3 10//3 25//3 24//3
f 7//2 5//2 24//2 23//2
f 22//2 11//2 14//2 21//2
f 1//4 4//4 2//4 3//4
f 11//1 22//1 25//1 16//1
f 13//4 11//4 16//4 15//4
f 17//3 22//3 21//3 20//3
f 13//3 12//3 14//3 11//3
f 25//4 22//4 17//4 24//4
f 17//1 19//1 23//1 24//1
f 18//2 19//2 17//2 20//2
f 1//1 10//1 9//1 4//1
