# Blender v2.79 (sub 0) OBJ File: ''
# www.blender.org
mtllib power2_disp_tris.mtl
o Plane_Plane.001
v -4.000000 4.000000 1.000001
v -8.000000 8.000000 0.000001
v -8.000000 4.000000 0.000001
v -4.000000 8.000000 0.000001
v 4.000000 4.000000 1.000001
v 8.000000 8.000000 0.000001
v 8.000000 4.000000 0.000001
v 4.000000 8.000000 0.000001
v 0.000000 8.000000 0.000001
v 0.000000 4.000000 0.000001
v -4.000000 -4.000000 1.000001
v -8.000000 -8.000000 0.000001
v -8.000000 -4.000000 0.000001
v -4.000000 -8.000000 0.000001
v -8.000000 0.000000 0.000000
v -4.000000 0.000000 0.000000
v 4.000000 -4.000000 1.000001
v 8.000000 -8.000000 0.000001
v 8.000000 -4.000000 0.000001
v 4.000000 -8.000000 0.000001
v 0.000000 -8.000000 0.000001
v 0.000000 -4.000000 0.000001
v 8.000000 0.000000 0.000000
v 4.000000 0.000000 0.000000
v 0.000000 0.000000 0.000000
vn -0.2425 -0.0000 0.9701
vn 0.0000 0.2425 0.9701
vn 0.0000 -0.2425 0.9701
vn 0.2425 -0.0000 0.9701
usemtl None
s off
f 2//1 3//1 1//1
f 9//2 4//2 1//2
f 1//3 16//3 25//3
f 25//4 10//4 1//4
f 1//3 15//3 16//3
f 1//1 3//1 15//1
f 8//2 5//2 6//2
f 9//4 1//4 10//4
f 7//4 6//4 5//4
f 8//2 9//2 5//2
f 24//3 5//3 25//3
f 25//1 5//1 10//1
f 24//3 23//3 5//3
f 7//4 5//4 23//4
f 14//3 11//3 12//3
f 10//1 5//1 9//1
f 13//1 12//1 11//1
f 14//3 21//3 11//3
f 16//2 11//2 25//2
f 25//4 11//4 22//4
f 16//2 15//2 11//2
f 13//1 11//1 15//1
f 18//3 17//3 20//3
f 22//4 11//4 21//4
f 18//4 19//4 17//4
f 21//3 20//3 17//3
f 17//2 24//2 25//2
f 25//1 22//1 17//1
f 17//2 23//2 24//2
f 17//4 19//4 23//4
f 21//1 17//1 22//1
f 2//2 1//2 4//2
